<?xml version="1.0" encoding="utf-8"?>
<!-- Generator: Adobe Illustrator 25.2.3, SVG Export Plug-In . SVG Version: 6.00 Build 0)  -->
<svg version="1.1" id="Lager_1" xmlns="http://www.w3.org/2000/svg" xmlns:xlink="http://www.w3.org/1999/xlink" x="0px" y="0px"
	 viewBox="0 0 800 328" style="enable-background:new 0 0 800 328;" xml:space="preserve">
<style type="text/css">
	.st0{fill:#404040;}
	.st1{fill:#B18BE8;stroke:#404040;stroke-width:4;stroke-linecap:round;stroke-linejoin:round;stroke-miterlimit:10;}
	.st2{fill:none;stroke:#404040;stroke-width:4;stroke-miterlimit:10;}
	.st3{fill:#B18BE8;stroke:#404040;stroke-width:4;stroke-miterlimit:10;}
	.st4{fill:none;stroke:#CCCCCC;stroke-width:4;stroke-linecap:round;stroke-linejoin:round;stroke-dasharray:0,14.1243;}
	.st5{fill:none;stroke:#CCCCCC;stroke-width:4;stroke-linecap:round;stroke-linejoin:round;}
	.st6{fill:none;stroke:#CCCCCC;stroke-width:4;stroke-linecap:round;stroke-linejoin:round;stroke-dasharray:0,14.9632;}
	.st7{fill:#B3E3FF;stroke:#404040;stroke-width:4;stroke-miterlimit:10;}
	.st8{fill:#B3E3FF;stroke:#404040;stroke-width:4;stroke-linecap:round;stroke-linejoin:round;stroke-miterlimit:10;}
	.st9{fill:none;stroke:#404040;stroke-width:4;stroke-linecap:round;stroke-linejoin:round;stroke-miterlimit:10;}
	.st10{fill:#414141;}
</style>
<path class="st0" d="M151.7,32.3h-1.6v4.3h-1.5V26.1h4c2,0,3.3,1.4,3.3,3.2c0,1.5-1,2.7-2.6,3l2.5,4.5h-1.7L151.7,32.3z M152.4,31
	c1.2,0,2-0.7,2-1.8s-0.8-1.8-2-1.8h-2.2V31H152.4z M164.5,34.6c-0.4,1.3-1.6,2.3-3.2,2.3c-1.9,0-3.6-1.4-3.6-3.9
	c0-2.3,1.6-3.8,3.5-3.8c2.2,0,3.5,1.5,3.5,3.8v0.5h-5.4c0,1.3,1,2.2,2.2,2.2s1.8-0.6,2-1.5L164.5,34.6z M163.1,32.3
	c0-1-0.7-1.8-2-1.8c-1.2,0-1.9,0.9-2,1.8H163.1z M167.1,36.7V25.8h1.4v10.9C168.5,36.7,167.1,36.7,167.1,36.7z M178,34.6
	c-0.4,1.3-1.6,2.3-3.2,2.3c-1.9,0-3.6-1.4-3.6-3.9c0-2.3,1.6-3.8,3.5-3.8c2.2,0,3.5,1.5,3.5,3.8v0.5h-5.4c0,1.3,1,2.2,2.2,2.2
	s1.8-0.6,2-1.5L178,34.6z M176.5,32.3c0-1-0.7-1.8-2-1.8c-1.2,0-1.9,0.9-2,1.8H176.5z M182.3,32.6l2-0.3c0.4-0.1,0.6-0.3,0.6-0.5
	c0-0.7-0.5-1.3-1.6-1.3c-1,0-1.5,0.6-1.6,1.5l-1.3-0.3c0.2-1.4,1.4-2.3,3-2.3c2.2,0,3,1.2,3,2.6v3.6c0,0.6,0.1,1,0.1,1.2h-1.4
	c0-0.2-0.1-0.5-0.1-1c-0.3,0.5-1,1.2-2.3,1.2c-1.5,0-2.4-1-2.4-2.2C180.1,33.5,181,32.7,182.3,32.6z M184.8,33.6v-0.3l-2.2,0.3
	c-0.6,0.1-1,0.4-1,1.1c0,0.5,0.5,1,1.2,1C183.9,35.7,184.8,35.2,184.8,33.6z M189.7,34.4c0.1,0.8,0.7,1.3,1.7,1.3
	c0.8,0,1.2-0.4,1.2-1c0-0.4-0.3-0.8-0.9-0.9l-1.2-0.3c-1.1-0.2-1.8-1-1.8-2c0-1.2,1.2-2.3,2.6-2.3c2,0,2.6,1.3,2.7,1.9l-1.2,0.5
	c-0.1-0.4-0.4-1.2-1.5-1.2c-0.7,0-1.2,0.5-1.2,1c0,0.4,0.3,0.8,0.8,0.9l1.2,0.3c1.3,0.3,2,1.1,2,2.1s-0.9,2.2-2.6,2.2
	c-2,0-2.8-1.3-2.9-2.1L189.7,34.4L189.7,34.4z M202.9,34.6c-0.4,1.3-1.6,2.3-3.2,2.3c-1.9,0-3.6-1.4-3.6-3.9c0-2.3,1.6-3.8,3.4-3.8
	c2.2,0,3.5,1.5,3.5,3.8v0.5h-5.4c0,1.3,1,2.2,2.2,2.2s1.8-0.6,2-1.5L202.9,34.6z M201.5,32.3c0-1-0.7-1.8-2-1.8
	c-1.2,0-1.9,0.9-2,1.8H201.5z"/>
<path class="st1" d="M146.4,5.7h96.2v50h-96.2V5.7z"/>
<path class="st0" d="M166.8,36.7V26.1h3.7c2.7,0,5.1,1.8,5.1,5.3s-2.4,5.3-5.1,5.3H166.8z M170.4,35.4c2,0,3.6-1.3,3.6-4
	s-1.6-4-3.6-4h-2.2v8H170.4z M184.4,34.6c-0.4,1.3-1.6,2.3-3.2,2.3c-1.9,0-3.6-1.4-3.6-3.9c0-2.3,1.6-3.8,3.4-3.8
	c2.2,0,3.5,1.5,3.5,3.8v0.5H179c0,1.3,1,2.2,2.2,2.2s1.8-0.6,2-1.5L184.4,34.6L184.4,34.6z M183,32.3c0-1-0.7-1.8-2-1.8
	c-1.2,0-1.9,0.9-2,1.8H183z M190.5,36.7h-1.4l-2.9-7.2h1.6l2.1,5.6l2.1-5.6h1.5L190.5,36.7L190.5,36.7z M201.2,34.6
	c-0.4,1.3-1.6,2.3-3.2,2.3c-1.9,0-3.6-1.4-3.6-3.9c0-2.3,1.6-3.8,3.4-3.8c2.2,0,3.5,1.5,3.5,3.8v0.5h-5.4c0,1.3,1,2.2,2.2,2.2
	s1.8-0.6,2-1.5L201.2,34.6z M199.8,32.3c0-1-0.7-1.8-2-1.8c-1.2,0-1.9,0.9-2,1.8H199.8z M203.8,36.7V25.8h1.4v10.9
	C205.2,36.7,203.8,36.7,203.8,36.7z M215.2,33.1c0,2.2-1.5,3.8-3.7,3.8s-3.7-1.6-3.7-3.8s1.5-3.8,3.7-3.8
	C213.6,29.2,215.2,30.9,215.2,33.1z M213.7,33.1c0-1.7-1-2.6-2.2-2.6s-2.2,0.9-2.2,2.6s1,2.6,2.2,2.6S213.7,34.8,213.7,33.1z
	 M217.7,39.5v-10h1.4v1.1c0.4-0.7,1.2-1.3,2.4-1.3c2.2,0,3.3,1.7,3.3,3.8s-1.2,3.8-3.4,3.8c-1.1,0-2-0.5-2.3-1.2v3.8H217.7z
	 M221.2,30.6c-1.3,0-2.1,1.1-2.1,2.5c0,1.5,0.9,2.5,2.1,2.5c1.3,0,2.1-1.1,2.1-2.5C223.4,31.6,222.6,30.6,221.2,30.6z"/>
<path class="st2" d="M776.4,306.7H180"/>
<circle class="st3" cx="485.4" cy="306.7" r="15.8"/>
<circle class="st3" cx="316" cy="306.7" r="15.8"/>
<circle class="st3" cx="776.4" cy="306.7" r="15.8"/>
<path class="st4" d="M70.9,306.7H21.5"/>
<path class="st5" d="M776.4,245.2"/>
<path class="st6" d="M761.4,245.2h-82.3"/>
<path class="st2" d="M85.1,275.9c0-17-13.8-30.7-30.8-30.7"/>
<path class="st2" d="M645.2,245.2H39.4"/>
<circle class="st7" cx="23.6" cy="245.2" r="15.8"/>
<circle class="st7" cx="316" cy="245.2" r="15.8"/>
<circle class="st7" cx="645.2" cy="245.2" r="15.8"/>
<path class="st8" d="M49.2,139.7h42.5v37.5H49.2V139.7z"/>
<path class="st0" d="M62.7,162.9h-1.2l-2.5-6.3h1.4l1.8,4.8l1.8-4.8h1.3C65.3,156.6,62.7,162.9,62.7,162.9z M67.4,155.7
	c0.5-0.8,1.4-1.4,2.6-1.4s2,0.5,2.6,1.4c0.6,0.8,0.8,1.9,0.8,3.1s-0.2,2.2-0.8,3.1c-0.5,0.8-1.4,1.4-2.6,1.4s-2-0.5-2.6-1.4
	c-0.6-0.8-0.8-1.9-0.8-3.1S66.9,156.5,67.4,155.7z M68.7,161.5c0.3,0.3,0.7,0.5,1.3,0.5s1-0.2,1.3-0.5c0.5-0.5,0.7-1.4,0.7-2.7
	s-0.2-2.2-0.7-2.7c-0.3-0.3-0.7-0.5-1.3-0.5s-1,0.2-1.3,0.5c-0.5,0.5-0.7,1.4-0.7,2.7S68.2,160.9,68.7,161.5z M75.9,161.2
	c0.5,0,0.9,0.4,0.9,0.9s-0.4,0.9-0.9,0.9s-0.9-0.4-0.9-0.9S75.4,161.2,75.9,161.2z M79.9,162.9V157h-2v-0.9c1.2,0,2-0.7,2.2-1.6h1.1
	v8.4H79.9z"/>
<path class="st9" d="M70.5,211.3v-17.6 M78.6,204.8l-8.1,8.2l-8.2-8.2"/>
<path class="st8" d="M294.7,139.7h42.5v37.5h-42.5V139.7z"/>
<path class="st0" d="M306.6,162.9h-1.2l-2.5-6.3h1.4l1.8,4.8l1.8-4.8h1.3L306.6,162.9L306.6,162.9z M311.3,155.7
	c0.5-0.8,1.4-1.4,2.6-1.4s2,0.5,2.6,1.4c0.6,0.8,0.8,1.9,0.8,3.1s-0.2,2.2-0.8,3.1c-0.5,0.8-1.4,1.4-2.6,1.4s-2-0.5-2.6-1.4
	c-0.6-0.8-0.8-1.9-0.8-3.1S310.8,156.5,311.3,155.7z M312.6,161.5c0.3,0.3,0.7,0.5,1.3,0.5s1-0.2,1.3-0.5c0.5-0.5,0.7-1.4,0.7-2.7
	s-0.2-2.2-0.7-2.7c-0.3-0.3-0.7-0.5-1.3-0.5s-1,0.2-1.3,0.5c-0.5,0.5-0.7,1.4-0.7,2.7S312.1,160.9,312.6,161.5z M319.8,161.2
	c0.5,0,0.9,0.4,0.9,0.9s-0.4,0.9-0.9,0.9s-0.9-0.4-0.9-0.9S319.3,161.2,319.8,161.2z M322.9,157.4v-0.3c0-1.4,1.1-2.7,2.9-2.7
	s2.8,1.2,2.8,2.6c0,1.1-0.6,2-1.6,2.6l-1.7,1.1c-0.5,0.3-0.9,0.7-1,1.2h4.3v1.2h-5.9c0-1.4,0.6-2.4,2-3.4l1.4-0.9
	c0.8-0.5,1.2-1.1,1.2-1.8c0-0.8-0.5-1.5-1.6-1.5s-1.6,0.8-1.6,1.7v0.4L322.9,157.4L322.9,157.4z"/>
<path class="st9" d="M316,211.3v-17.6 M324.1,204.8L316,213l-8.2-8.2"/>
<path class="st8" d="M623.9,139.7h42.5v37.5h-42.5V139.7z"/>
<path class="st0" d="M636.9,162.9h-1.2l-2.5-6.3h1.4l1.8,4.8l1.8-4.8h1.3L636.9,162.9z M642.6,162.9V157h-2v-0.9
	c1.2,0,2-0.7,2.2-1.6h1.1v8.4H642.6z M647.1,161.2c0.5,0,0.9,0.4,0.9,0.9s-0.4,0.9-0.9,0.9s-0.9-0.4-0.9-0.9
	S646.6,161.2,647.1,161.2z M650.8,155.7c0.5-0.8,1.4-1.4,2.6-1.4s2,0.5,2.6,1.4c0.6,0.8,0.8,1.9,0.8,3.1s-0.2,2.2-0.8,3.1
	c-0.5,0.8-1.4,1.4-2.6,1.4s-2-0.5-2.6-1.4c-0.6-0.8-0.8-1.9-0.8-3.1S650.2,156.5,650.8,155.7z M652,161.5c0.3,0.3,0.7,0.5,1.3,0.5
	s1-0.2,1.3-0.5c0.5-0.5,0.7-1.4,0.7-2.7s-0.2-2.2-0.7-2.7c-0.3-0.3-0.7-0.5-1.3-0.5s-1,0.2-1.3,0.5c-0.5,0.5-0.7,1.4-0.7,2.7
	S651.5,160.9,652,161.5z"/>
<path class="st9" d="M645.2,211.3v-17.6 M653.3,204.8l-8.1,8.2l-8.2-8.2"/>
<path class="st2" d="M85.1,275.9c0,17,13.8,30.8,30.8,30.8h95.7"/>
<circle class="st3" cx="195.7" cy="306.7" r="15.7"/>
<circle class="st3" cx="148.9" cy="306.7" r="15.8"/>
<g>
	<path class="st8" d="M7,5.7h96.2v50H7V5.7z"/>
	<g>
		<path class="st10" d="M39.9,36.8v-10h2l2.4,7.1c0.2,0.7,0.4,1.2,0.5,1.5c0.1-0.4,0.3-0.9,0.5-1.6l2.4-7h1.8v10h-1.3v-8.4l-2.9,8.4
			h-1.2l-2.9-8.5v8.5H39.9z"/>
		<path class="st10" d="M56.9,35.9c-0.5,0.4-0.9,0.7-1.3,0.8c-0.4,0.2-0.9,0.2-1.4,0.2c-0.8,0-1.4-0.2-1.8-0.6s-0.6-0.9-0.6-1.5
			c0-0.4,0.1-0.7,0.2-1c0.2-0.3,0.4-0.5,0.6-0.7c0.3-0.2,0.6-0.3,0.9-0.4c0.2-0.1,0.6-0.1,1.1-0.2c1-0.1,1.7-0.3,2.2-0.4
			c0-0.2,0-0.3,0-0.3c0-0.5-0.1-0.9-0.3-1.1c-0.3-0.3-0.8-0.4-1.4-0.4s-1,0.1-1.3,0.3c-0.3,0.2-0.5,0.6-0.6,1.1L52,31.5
			c0.1-0.5,0.3-0.9,0.5-1.2c0.3-0.3,0.6-0.6,1.1-0.7c0.5-0.2,1-0.3,1.6-0.3s1.1,0.1,1.5,0.2s0.7,0.3,0.9,0.6
			c0.2,0.2,0.3,0.5,0.4,0.8c0,0.2,0.1,0.6,0.1,1.1v1.6c0,1.1,0,1.9,0.1,2.2s0.2,0.6,0.3,0.9h-1.3C57,36.6,56.9,36.3,56.9,35.9z
			 M56.8,33.2c-0.4,0.2-1.1,0.3-2,0.5c-0.5,0.1-0.9,0.2-1.1,0.2s-0.4,0.2-0.5,0.4S53,34.7,53,34.9c0,0.3,0.1,0.6,0.4,0.8
			c0.2,0.2,0.6,0.3,1.1,0.3s0.9-0.1,1.3-0.3c0.4-0.2,0.6-0.5,0.8-0.9c0.1-0.3,0.2-0.7,0.2-1.2V33.2L56.8,33.2z"/>
		<path class="st10" d="M60.6,28.2v-1.4h1.2v1.4H60.6z M60.6,36.8v-7.3h1.2v7.3H60.6z"/>
		<path class="st10" d="M64.4,36.8v-7.3h1.1v1c0.5-0.8,1.3-1.2,2.3-1.2c0.4,0,0.8,0.1,1.2,0.2c0.4,0.2,0.6,0.4,0.8,0.6
			c0.2,0.2,0.3,0.6,0.4,0.9c0,0.2,0.1,0.6,0.1,1.2v4.5h-1.2v-4.4c0-0.5,0-0.9-0.1-1.1s-0.3-0.4-0.5-0.6c-0.2-0.1-0.5-0.2-0.9-0.2
			c-0.5,0-1,0.2-1.4,0.5s-0.6,1-0.6,1.9v4H64.4z"/>
	</g>
</g>
</svg>
